# xmcd
#
# Track frame offsets:
#  150
#  15780
#  32047
#  48300
#  49987
#  67250
#  84663
#  98481
#  100597
#  120416
#  134491
#  135924
#  151798
#
# Disc length: 2324 seconds
#
# Revision: 0
# Processed by: cddbd v1.4PL0 Copyright (c) Steve Scherf et al.
# Submitted via: AltoMP3_Maker 3.0
#
DISCID=9909120d
DTITLE=Various Artist - Fit-Fitty
DYEAR=1900
DGENRE=
TTITLE0=Fit-fitty
TTITLE1=Chali Chali
TTITLE2=Daroe Pieke
TTITLE3=Dialog
TTITLE4=Haathi Ke Daal
TTITLE5=Baali Oemar
TTITLE6=Aag Lage Tan Man Me
TTITLE7=Dialog
TTITLE8=Kyoe Khaja Hai Tu Hanse
TTITLE9=Aag Lage Tan Man Me
TTITLE10=Dialog
TTITLE11=Toote Hariya Pletie
TTITLE12=Saram Na Lagi
EXTD=
EXTT0=
EXTT1=
EXTT2=
EXTT3=
EXTT4=
EXTT5=
EXTT6=
EXTT7=
EXTT8=
EXTT9=
EXTT10=
EXTT11=
EXTT12=
PLAYORDER=
